<svg width="397" height="361" viewBox="0 0 397 361" fill="none" xmlns="http://www.w3.org/2000/svg">
<g clip-path="url(#clip0_4_3605)">
<path d="M192.422 300.445V110.5H3.87948V300.445H192.422ZM196.302 304.327H0V106.618H196.302V304.327Z" fill="#0080FF"/>
<path d="M99.4438 157.986L102.159 155.269L157.765 210.907L155.05 213.624L99.4438 157.986Z" fill="#0080FF"/>
<path d="M87.5469 107.006L91.8143 107.653L94.5299 108.429L195.138 209.225L192.422 211.942L87.5469 107.006Z" fill="#0080FF"/>
<path d="M91.4264 131.332L174.835 214.789L177.292 214.918L180.784 215.306L90.0039 124.344L91.4264 127.45V131.332Z" fill="#0080FF"/>
<path d="M108.108 109.335L110.953 106.618L196.301 192.145L193.586 194.862L108.108 109.335Z" fill="#0080FF"/>
<path d="M128.152 109.335L130.868 106.618L195.138 171.054L192.422 173.772L128.152 109.335Z" fill="#0080FF"/>
<path d="M167.076 110.5L169.921 107.782L195.138 133.143L192.422 135.86L167.076 110.5Z" fill="#0080FF"/>
<path d="M147.549 109.335L150.265 106.618L195.138 151.646L192.422 154.363L147.549 109.335Z" fill="#0080FF"/>
<path d="M196.948 214.789C255.011 214.789 302.341 167.432 302.341 109.335C302.341 51.2387 255.011 3.88172 196.948 3.88172C138.885 3.88172 91.5557 51.2387 91.5557 109.335C91.5557 167.432 138.756 214.789 196.948 214.789ZM196.948 218.67C136.558 218.67 87.6763 169.761 87.6763 109.335C87.6763 48.9097 136.558 0 196.948 0C257.339 0 306.22 48.9097 306.22 109.335C306.22 169.761 257.21 218.67 196.948 218.67Z" fill="white"/>
<path d="M287.599 214.918C345.791 214.918 393.12 167.561 393.12 109.335C393.12 51.1093 345.791 3.75233 287.599 3.75233H196.948C138.756 3.75233 91.4264 51.1093 91.4264 109.335C91.4264 167.561 138.756 214.918 196.948 214.918H287.599ZM287.599 218.8H196.948C136.558 218.8 87.5469 169.761 87.5469 109.335C87.6762 49.0391 136.558 0 196.948 0H287.599C347.989 0 397 49.0391 397 109.465C397 169.89 347.989 218.8 287.599 218.8Z" fill="#FFB32C"/>
<path fill-rule="evenodd" clip-rule="evenodd" d="M244.019 217.764L300.53 275.473V216.6L244.019 217.764Z" fill="#FFB32C"/>
<path fill-rule="evenodd" clip-rule="evenodd" d="M79.7879 303.292L23.2769 361V302.127L79.7879 303.292Z" fill="#0080FF"/>
<path fill-rule="evenodd" clip-rule="evenodd" d="M152.464 189.946C160.999 189.946 167.982 196.933 167.982 205.472C167.982 214.012 160.999 220.999 152.464 220.999C143.929 220.999 136.946 214.012 136.946 205.472C136.946 196.933 143.929 189.946 152.464 189.946Z" fill="#0080FF"/>
<path d="M152.464 217.118C158.93 217.118 164.102 211.942 164.102 205.472C164.102 199.003 158.93 193.827 152.464 193.827C145.998 193.827 140.825 199.003 140.825 205.472C140.825 211.942 145.998 217.118 152.464 217.118ZM152.464 220.999C143.929 220.999 136.946 214.012 136.946 205.472C136.946 196.933 143.929 189.946 152.464 189.946C160.999 189.946 167.982 196.933 167.982 205.472C167.982 214.142 160.999 220.999 152.464 220.999Z" fill="white"/>
<path fill-rule="evenodd" clip-rule="evenodd" d="M99.8317 193.31C106.556 193.31 111.987 198.744 111.987 205.472C111.987 212.201 106.556 217.635 99.8317 217.635C93.1073 217.635 87.676 212.201 87.676 205.472C87.5467 198.744 93.1073 193.31 99.8317 193.31Z" fill="white"/>
<path fill-rule="evenodd" clip-rule="evenodd" d="M48.2348 193.31C54.9592 193.31 60.3905 198.744 60.3905 205.472C60.3905 212.201 54.9592 217.635 48.2348 217.635C41.5104 217.635 36.0791 212.201 36.0791 205.472C36.0791 198.744 41.5104 193.31 48.2348 193.31Z" fill="white"/>
<path fill-rule="evenodd" clip-rule="evenodd" d="M195.138 93.2907C203.802 93.2907 210.656 100.278 210.656 108.818C210.656 117.357 203.673 124.344 195.138 124.344C186.603 124.344 179.62 117.357 179.62 108.818C179.62 100.278 186.603 93.2907 195.138 93.2907Z" fill="#FFB32C"/>
<path d="M195.138 120.592C201.604 120.592 206.776 115.416 206.776 108.947C206.776 102.477 201.604 97.3018 195.138 97.3018C188.672 97.3018 183.5 102.477 183.5 108.947C183.5 115.287 188.672 120.592 195.138 120.592ZM195.138 124.474C186.474 124.474 179.62 117.487 179.62 108.947C179.62 100.407 186.603 93.4201 195.138 93.4201C203.673 93.4201 210.656 100.407 210.656 108.947C210.656 117.487 203.802 124.474 195.138 124.474Z" fill="white"/>
<path fill-rule="evenodd" clip-rule="evenodd" d="M250.485 96.6548C257.21 96.6548 262.641 102.089 262.641 108.818C262.641 115.546 257.21 120.98 250.485 120.98C243.761 120.98 238.329 115.546 238.329 108.818C238.2 102.089 243.631 96.6548 250.485 96.6548Z" fill="white"/>
<path fill-rule="evenodd" clip-rule="evenodd" d="M303.601 96.6548C310.325 96.6548 315.756 102.089 315.756 108.818C315.756 115.546 310.325 120.98 303.601 120.98C296.876 120.98 291.445 115.546 291.445 108.818C291.445 102.089 296.876 96.6548 303.601 96.6548Z" fill="white"/>
</g>
<defs>
<clipPath id="clip0_4_3605">
<rect width="397" height="361" fill="white"/>
</clipPath>
</defs>
</svg>
