<svg width="145" height="22" viewBox="0 0 145 22" fill="none" xmlns="http://www.w3.org/2000/svg">
<path d="M0.884 0.293999V1.976H8.076V21H10.048V1.976H17.269V0.293999H0.884ZM24.9733 12.474V21H26.9453V12.474L35.1233 0.293999H32.7743L25.9883 10.792L19.1733 0.293999H16.8533L24.9733 12.474ZM36.9018 0.293999V21H38.8738V3.484H38.9318L50.9958 21H53.1998V0.293999H51.2278V17.81H51.1698L39.1058 0.293999H36.9018ZM63.1207 12.474V21H65.0927V12.474L73.2707 0.293999H70.9217L64.1357 10.792L57.3207 0.293999H55.0007L63.1207 12.474ZM82.3375 7.718H84.8025C84.7832 7.09933 84.8412 6.49033 84.9765 5.891C85.1312 5.27233 85.3729 4.72133 85.7015 4.238C86.0302 3.75467 86.4459 3.368 86.9485 3.078C87.4705 2.76867 88.0892 2.614 88.8045 2.614C89.3459 2.614 89.8582 2.701 90.3415 2.875C90.8249 3.049 91.2405 3.30033 91.5885 3.629C91.9559 3.95767 92.2459 4.354 92.4585 4.818C92.6712 5.26267 92.7775 5.76533 92.7775 6.326C92.7775 7.04133 92.6615 7.66967 92.4295 8.211C92.2169 8.75233 91.8882 9.255 91.4435 9.719C91.0182 10.183 90.4769 10.647 89.8195 11.111C89.1622 11.5557 88.3985 12.0487 87.5285 12.59C86.8132 13.0153 86.1269 13.4697 85.4695 13.953C84.8122 14.4363 84.2225 14.997 83.7005 15.635C83.1785 16.273 82.7435 17.027 82.3955 17.897C82.0669 18.7477 81.8542 19.782 81.7575 21H95.1845V18.825H84.6285C84.7445 18.187 84.9862 17.6263 85.3535 17.143C85.7402 16.6403 86.1945 16.1763 86.7165 15.751C87.2579 15.3257 87.8475 14.9293 88.4855 14.562C89.1235 14.1753 89.7615 13.7887 90.3995 13.402C91.0375 12.996 91.6562 12.5707 92.2555 12.126C92.8549 11.6813 93.3865 11.1883 93.8505 10.647C94.3145 10.0863 94.6819 9.458 94.9525 8.762C95.2425 8.066 95.3875 7.26367 95.3875 6.355C95.3875 5.38833 95.2135 4.53767 94.8655 3.803C94.5369 3.06833 94.0825 2.45933 93.5025 1.976C92.9225 1.47333 92.2362 1.09633 91.4435 0.844998C90.6702 0.574332 89.8389 0.438999 88.9495 0.438999C87.8669 0.438999 86.9002 0.622665 86.0495 0.989998C85.1989 1.35733 84.4835 1.86967 83.9035 2.527C83.3429 3.165 82.9272 3.92867 82.6565 4.818C82.3859 5.70733 82.2795 6.674 82.3375 7.718ZM101.004 10.879C101.004 10.3763 101.004 9.82533 101.004 9.226C101.023 8.60733 101.071 7.99833 101.149 7.399C101.245 6.78033 101.371 6.181 101.526 5.601C101.7 5.021 101.941 4.51833 102.251 4.093C102.579 3.64833 102.985 3.29067 103.469 3.02C103.952 2.74933 104.542 2.614 105.238 2.614C105.934 2.614 106.523 2.74933 107.007 3.02C107.49 3.29067 107.886 3.64833 108.196 4.093C108.524 4.51833 108.766 5.021 108.921 5.601C109.095 6.181 109.22 6.78033 109.298 7.399C109.394 7.99833 109.443 8.60733 109.443 9.226C109.462 9.82533 109.472 10.3763 109.472 10.879C109.472 11.6523 109.443 12.5223 109.385 13.489C109.346 14.4363 109.191 15.3353 108.921 16.186C108.669 17.0173 108.254 17.723 107.674 18.303C107.094 18.883 106.282 19.173 105.238 19.173C104.194 19.173 103.382 18.883 102.802 18.303C102.222 17.723 101.796 17.0173 101.526 16.186C101.274 15.3353 101.12 14.4363 101.062 13.489C101.023 12.5223 101.004 11.6523 101.004 10.879ZM98.3938 10.908C98.3938 11.662 98.4131 12.445 98.4518 13.257C98.4904 14.069 98.5871 14.8617 98.7418 15.635C98.8964 16.4083 99.1188 17.143 99.4088 17.839C99.6988 18.5157 100.095 19.115 100.598 19.637C101.1 20.159 101.729 20.5747 102.483 20.884C103.256 21.174 104.174 21.319 105.238 21.319C106.32 21.319 107.239 21.174 107.993 20.884C108.747 20.5747 109.375 20.159 109.878 19.637C110.38 19.115 110.777 18.5157 111.067 17.839C111.357 17.143 111.579 16.4083 111.734 15.635C111.888 14.8617 111.985 14.069 112.024 13.257C112.062 12.445 112.082 11.662 112.082 10.908C112.082 10.154 112.062 9.371 112.024 8.559C111.985 7.747 111.888 6.95433 111.734 6.181C111.579 5.40767 111.357 4.673 111.067 3.977C110.777 3.281 110.38 2.672 109.878 2.15C109.375 1.628 108.737 1.21233 107.964 0.902999C107.21 0.593666 106.301 0.438999 105.238 0.438999C104.174 0.438999 103.256 0.593666 102.483 0.902999C101.729 1.21233 101.1 1.628 100.598 2.15C100.095 2.672 99.6988 3.281 99.4088 3.977C99.1188 4.673 98.8964 5.40767 98.7418 6.181C98.5871 6.95433 98.4904 7.747 98.4518 8.559C98.4131 9.371 98.3938 10.154 98.3938 10.908ZM123.614 21V0.438999H121.729C121.594 1.21233 121.342 1.85033 120.975 2.353C120.608 2.85567 120.153 3.252 119.612 3.542C119.09 3.832 118.5 4.035 117.843 4.151C117.186 4.24767 116.509 4.296 115.813 4.296V6.268H121.149V21H123.614ZM133.29 16.041H130.825C130.98 17.8197 131.628 19.144 132.768 20.014C133.909 20.884 135.34 21.319 137.06 21.319C139.554 21.319 141.362 20.3717 142.483 18.477C143.624 16.563 144.194 13.8273 144.194 10.27C144.194 8.31733 144.001 6.71267 143.614 5.456C143.247 4.18 142.744 3.17467 142.106 2.44C141.468 1.70533 140.724 1.193 139.873 0.902999C139.023 0.593666 138.114 0.438999 137.147 0.438999C136.161 0.438999 135.253 0.603332 134.421 0.931999C133.59 1.26067 132.875 1.72467 132.275 2.324C131.676 2.904 131.212 3.60967 130.883 4.441C130.555 5.253 130.39 6.152 130.39 7.138C130.39 8.14333 130.526 9.07133 130.796 9.922C131.086 10.7727 131.502 11.4977 132.043 12.097C132.604 12.6963 133.29 13.17 134.102 13.518C134.914 13.8467 135.842 14.011 136.886 14.011C137.892 14.011 138.82 13.7597 139.67 13.257C140.521 12.735 141.178 12.039 141.642 11.169L141.7 11.227C141.623 13.9143 141.207 15.9153 140.453 17.23C139.699 18.5253 138.568 19.173 137.06 19.173C136.074 19.173 135.224 18.9023 134.508 18.361C133.793 17.8197 133.387 17.0463 133.29 16.041ZM141.265 7.312C141.265 7.91133 141.169 8.49133 140.975 9.052C140.782 9.59333 140.502 10.0767 140.134 10.502C139.767 10.908 139.322 11.2367 138.8 11.488C138.278 11.72 137.698 11.836 137.06 11.836C136.461 11.836 135.91 11.72 135.407 11.488C134.924 11.2367 134.499 10.908 134.131 10.502C133.783 10.096 133.503 9.632 133.29 9.11C133.097 8.588 133 8.04667 133 7.486C133 6.848 133.068 6.239 133.203 5.659C133.358 5.079 133.59 4.56667 133.899 4.122C134.228 3.658 134.644 3.29067 135.146 3.02C135.668 2.74933 136.297 2.614 137.031 2.614C137.727 2.614 138.336 2.73967 138.858 2.991C139.38 3.24233 139.815 3.59033 140.163 4.035C140.531 4.46033 140.801 4.95333 140.975 5.514C141.169 6.07467 141.265 6.674 141.265 7.312Z" fill="#0A2756"/>
</svg>
