<svg width="26" height="26" viewBox="0 0 26 26" fill="none" xmlns="http://www.w3.org/2000/svg">
<path d="M19.4989 0.00540974L16.1273 0C12.3394 0 9.89156 2.51147 9.89156 6.39863V9.34883H6.50158C6.20865 9.34883 5.97144 9.58632 5.97144 9.87926V14.1538C5.97144 14.4467 6.20892 14.6839 6.50158 14.6839H9.89156V25.4698C9.89156 25.7628 10.1288 26 10.4217 26H14.8447C15.1376 26 15.3748 25.7625 15.3748 25.4698V14.6839H19.3385C19.6314 14.6839 19.8686 14.4467 19.8686 14.1538L19.8703 9.87926C19.8703 9.73861 19.8143 9.6039 19.715 9.50436C19.6157 9.40483 19.4805 9.34883 19.3398 9.34883H15.3748V6.84791C15.3748 5.64587 15.6613 5.03565 17.2271 5.03565L19.4983 5.03484C19.791 5.03484 20.0282 4.79735 20.0282 4.50469V0.535564C20.0282 0.243168 19.7913 0.00595071 19.4989 0.00540974Z" fill="#0A2756"/>
</svg>
