<svg width="394" height="220" viewBox="0 0 394 220" fill="none" xmlns="http://www.w3.org/2000/svg">
<g clip-path="url(#clip0_4_3041)">
<path d="M44.2252 57.3616H88.1116V65.5422H70.9089V111.412H61.4279V65.5422H44.2252V57.3616Z" fill="white"/>
<path d="M93.1942 57.3616H101.893V77.4235H102.089C103.164 75.6706 104.728 74.2097 106.878 73.0411C108.931 71.8724 111.277 71.2881 113.916 71.2881C118.216 71.2881 121.637 72.3594 124.081 74.5993C126.524 76.8392 127.795 80.1504 127.795 84.6303V111.509H119.096V86.7728C118.998 83.6564 118.314 81.4165 117.141 80.053C115.968 78.6896 114.013 78.0079 111.472 78.0079C110.006 78.0079 108.735 78.3 107.562 78.787C106.389 79.2739 105.412 80.053 104.63 81.0269C103.848 82.0008 103.164 83.0721 102.773 84.3381C102.284 85.6042 102.089 86.9676 102.089 88.331V111.412H93.3897V57.3616H93.1942Z" fill="white"/>
<path d="M137.081 57.3616H145.78V65.5422H137.081V57.3616ZM137.081 72.262H145.78V111.412H137.081V72.262Z" fill="white"/>
<path d="M161.712 98.8489C162.005 101.381 162.885 103.134 164.644 104.108C166.306 105.082 168.358 105.666 170.606 105.666C171.388 105.666 172.366 105.569 173.343 105.471C174.418 105.374 175.396 105.082 176.275 104.79C177.155 104.4 177.937 103.913 178.523 103.231C179.11 102.55 179.403 101.673 179.305 100.505C179.208 99.4333 178.817 98.4594 178.132 97.7777C177.35 97.096 176.373 96.5116 175.2 96.1221C174.027 95.7325 172.659 95.343 171.095 95.0508C169.531 94.7586 168.065 94.4665 166.501 94.0769C164.839 93.6874 163.276 93.2978 161.809 92.8109C160.343 92.3239 158.975 91.6422 157.802 90.7657C156.629 89.8892 155.652 88.818 154.967 87.4545C154.283 86.0911 153.892 84.4355 153.892 82.4877C153.892 80.3452 154.381 78.5922 155.456 77.1314C156.531 75.6706 157.802 74.5019 159.366 73.6254C160.93 72.7489 162.689 72.1646 164.644 71.775C166.599 71.3855 168.456 71.2881 170.215 71.2881C172.268 71.2881 174.223 71.4829 175.982 71.9698C177.839 72.3594 179.501 73.1385 180.967 74.015C182.433 74.9888 183.704 76.2549 184.681 77.7157C185.659 79.2739 186.245 81.1243 186.538 83.2668H177.546C177.155 81.2217 176.178 79.8582 174.711 79.0791C173.245 78.3974 171.486 78.0079 169.629 78.0079C169.042 78.0079 168.26 78.1053 167.478 78.2027C166.599 78.3 165.817 78.4948 165.133 78.787C164.351 79.0791 163.764 79.4687 163.276 79.9556C162.787 80.4426 162.494 81.2217 162.494 82.0008C162.494 83.0721 162.885 83.9486 163.569 84.5329C164.351 85.2146 165.23 85.7015 166.501 86.1885C167.674 86.578 169.042 86.9676 170.606 87.2597C172.17 87.5519 173.734 87.8441 175.298 88.2336C176.862 88.6232 178.426 89.0127 179.892 89.4997C181.456 89.9866 182.726 90.6683 183.997 91.5448C185.17 92.4213 186.147 93.4926 186.929 94.7586C187.613 96.0247 188.004 97.6803 188.004 99.6281C188.004 101.965 187.516 103.913 186.441 105.569C185.365 107.224 183.997 108.49 182.335 109.464C180.674 110.438 178.719 111.217 176.666 111.704C174.614 112.191 172.561 112.386 170.508 112.386C168.065 112.386 165.719 112.094 163.667 111.509C161.516 110.925 159.757 110.146 158.193 108.977C156.629 107.809 155.456 106.445 154.576 104.692C153.697 103.037 153.208 100.991 153.208 98.6542H161.712V98.8489Z" fill="white"/>
<path d="M231.011 90.1814L210.681 57.3616H221.726L236.094 81.6113L250.266 57.3616H260.92L240.688 90.1814V111.412H231.207V90.1814H231.011Z" fill="white"/>
<path d="M264.634 94.0769C264.634 95.6351 264.83 97.0959 265.319 98.4594C265.71 99.9202 266.394 101.089 267.274 102.16C268.153 103.231 269.228 104.108 270.499 104.692C271.77 105.277 273.431 105.666 275.191 105.666C277.732 105.666 279.785 105.082 281.348 104.01C282.912 102.939 284.085 101.284 284.769 99.1411H292.98C292.491 101.284 291.709 103.134 290.634 104.79C289.559 106.445 288.19 107.809 286.627 108.977C285.063 110.146 283.303 110.925 281.348 111.509C279.394 112.094 277.341 112.386 275.191 112.386C272.063 112.386 269.326 111.899 266.98 110.828C264.634 109.854 262.582 108.393 260.92 106.543C259.259 104.692 257.988 102.55 257.206 100.018C256.326 97.4855 255.935 94.7586 255.935 91.7396C255.935 89.0127 256.424 86.2858 257.304 83.8511C258.183 81.319 259.454 79.1765 261.116 77.2287C262.777 75.3783 264.732 73.8201 267.078 72.7489C269.424 71.6776 272.063 71.0933 274.995 71.0933C278.123 71.0933 280.86 71.775 283.303 73.041C285.747 74.3071 287.799 76.0601 289.461 78.1052C291.123 80.2478 292.296 82.6825 292.98 85.4093C293.762 88.1362 293.86 90.9605 293.566 93.8821H264.634V94.0769ZM284.867 88.331C284.769 86.9675 284.476 85.7015 283.987 84.4354C283.499 83.1694 282.815 82.0981 282.033 81.1243C281.153 80.1504 280.176 79.4687 279.003 78.8843C277.83 78.3 276.461 78.0078 274.995 78.0078C273.431 78.0078 272.063 78.3 270.89 78.7869C269.619 79.2739 268.544 80.053 267.664 81.0269C266.785 82.0007 266.101 83.072 265.514 84.3381C265.025 85.6041 264.732 86.9675 264.634 88.4284H284.867V88.331Z" fill="white"/>
<path d="M333.054 102.647C333.054 103.718 333.152 104.497 333.445 104.887C333.738 105.374 334.227 105.569 335.107 105.569C335.4 105.569 335.693 105.569 335.986 105.569C336.377 105.569 336.768 105.471 337.159 105.374V111.315C336.866 111.412 336.475 111.509 335.986 111.704C335.498 111.802 335.009 111.899 334.52 111.996C334.032 112.094 333.543 112.191 332.956 112.191C332.468 112.289 331.979 112.289 331.686 112.289C329.926 112.289 328.46 111.899 327.287 111.217C326.114 110.536 325.332 109.27 325.039 107.517C323.28 109.172 321.227 110.438 318.686 111.12C316.145 111.899 313.799 112.289 311.453 112.289C309.694 112.289 308.032 112.094 306.37 111.607C304.709 111.12 303.34 110.438 302.07 109.464C300.799 108.49 299.822 107.322 299.137 105.861C298.356 104.4 298.062 102.745 298.062 100.797C298.062 98.362 298.551 96.4143 299.431 94.8561C300.31 93.2978 301.483 92.1292 302.949 91.2527C304.416 90.3762 305.979 89.7919 307.837 89.4023C309.596 89.0128 311.453 88.7206 313.31 88.5258C314.874 88.2337 316.34 88.0389 317.806 87.8441C319.272 87.7467 320.445 87.5519 321.521 87.1624C322.596 86.8702 323.475 86.3833 324.062 85.799C324.648 85.2146 325.039 84.2407 325.039 82.9747C325.039 81.9034 324.746 80.9295 324.257 80.2478C323.769 79.5661 323.084 78.9818 322.302 78.5922C321.521 78.2027 320.641 78.0079 319.663 77.8131C318.686 77.7157 317.806 77.6183 316.927 77.6183C314.483 77.6183 312.528 78.1053 310.964 79.1766C309.4 80.1504 308.521 81.7086 308.325 83.8512H299.626C299.822 81.3191 300.408 79.2739 301.483 77.6183C302.558 75.9627 303.927 74.5993 305.588 73.6254C307.25 72.6515 309.107 71.8724 311.16 71.4829C313.212 71.0933 315.363 70.8986 317.513 70.8986C319.468 70.8986 321.325 71.0933 323.182 71.4829C325.039 71.8724 326.701 72.5542 328.265 73.4307C329.731 74.3071 331.002 75.4758 331.881 76.9366C332.761 78.3974 333.25 80.1504 333.25 82.1956V102.647H333.054ZM324.355 91.7396C323.084 92.6161 321.423 93.1031 319.468 93.2978C317.513 93.4926 315.656 93.7848 313.701 94.077C312.821 94.2717 311.942 94.4665 311.062 94.7587C310.182 95.0508 309.4 95.4404 308.814 95.9273C308.13 96.4143 307.641 96.9986 307.25 97.7777C306.859 98.5568 306.664 99.5307 306.664 100.602C306.664 101.576 306.957 102.355 307.543 103.037C308.13 103.718 308.814 104.205 309.596 104.595C310.378 104.984 311.258 105.277 312.137 105.374C313.115 105.569 313.897 105.569 314.679 105.569C315.656 105.569 316.633 105.471 317.806 105.179C318.881 104.887 319.957 104.497 320.934 103.913C321.911 103.329 322.791 102.55 323.378 101.576C324.062 100.602 324.355 99.5307 324.355 98.1673V91.7396Z" fill="white"/>
<path d="M342.34 72.2619H350.452V79.8582H350.648C350.941 78.787 351.43 77.8131 352.114 76.7418C352.798 75.7679 353.776 74.794 354.753 74.0149C355.828 73.1384 356.903 72.5541 358.174 71.9698C359.445 71.4828 360.715 71.1907 362.084 71.1907C363.061 71.1907 363.745 71.1907 364.136 71.2881C364.527 71.3854 364.918 71.3855 365.309 71.4828V79.7608C364.723 79.6635 364.039 79.5661 363.452 79.4687C362.866 79.3713 362.182 79.3713 361.595 79.3713C360.129 79.3713 358.761 79.6635 357.49 80.2478C356.219 80.8321 355.046 81.7086 354.069 82.7799C353.091 83.9485 352.31 85.312 351.821 86.9676C351.234 88.6232 350.941 90.5709 350.941 92.7135V111.315H342.34V72.2619Z" fill="white"/>
<path d="M60.0594 124.462H70.1269L94.8557 164.294H95.0512V124.462H104.044V178.513H94.0738L69.3449 138.778H69.1495V178.513H60.1572V124.462H60.0594Z" fill="white"/>
<path d="M120.855 161.177C120.855 162.736 121.051 164.197 121.539 165.56C121.93 167.021 122.615 168.189 123.494 169.261C124.374 170.332 125.449 171.208 126.72 171.793C127.99 172.377 129.652 172.767 131.411 172.767C133.953 172.767 136.005 172.182 137.569 171.111C139.133 170.04 140.306 168.384 140.99 166.242H149.201C148.712 168.384 147.93 170.235 146.855 171.89C145.78 173.546 144.411 174.909 142.847 176.078C141.283 177.247 139.524 178.026 137.569 178.61C135.614 179.194 133.562 179.486 131.411 179.486C128.284 179.486 125.547 179 123.201 177.928C120.855 176.954 118.803 175.494 117.141 173.643C115.479 171.793 114.209 169.65 113.427 167.118C112.547 164.586 112.156 161.859 112.156 158.84C112.156 156.113 112.645 153.386 113.525 150.952C114.404 148.42 115.675 146.277 117.337 144.329C118.998 142.479 120.953 140.921 123.299 139.849C125.645 138.778 128.284 138.194 131.216 138.194C134.344 138.194 137.081 138.876 139.524 140.142C141.968 141.408 144.02 143.161 145.682 145.206C147.343 147.348 148.516 149.783 149.201 152.51C149.983 155.237 150.08 158.061 149.787 160.983H120.855V161.177ZM141.088 155.529C140.99 154.166 140.697 152.899 140.208 151.633C139.72 150.367 139.035 149.296 138.253 148.322C137.374 147.348 136.396 146.667 135.223 146.082C134.051 145.498 132.682 145.206 131.216 145.206C129.652 145.206 128.284 145.498 127.111 145.985C125.84 146.472 124.765 147.251 123.885 148.225C123.006 149.199 122.321 150.27 121.735 151.536C121.246 152.802 120.953 154.166 120.855 155.626H141.088V155.529Z" fill="white"/>
<path d="M166.892 157.964L153.306 139.46H163.764L171.975 151.536L180.576 139.46H190.643L177.253 157.574L192.305 178.61H181.944L171.975 164.196L162.298 178.61H152.133L166.892 157.964Z" fill="white"/>
<path d="M193.185 139.362H199.734V127.676H208.433V139.362H216.252V145.79H208.433V166.631C208.433 167.508 208.433 168.287 208.53 168.968C208.628 169.65 208.824 170.137 209.019 170.624C209.312 171.111 209.703 171.403 210.29 171.598C210.876 171.793 211.56 171.89 212.538 171.89C213.124 171.89 213.711 171.89 214.395 171.89C214.981 171.89 215.568 171.793 216.252 171.598V178.22C215.275 178.318 214.395 178.415 213.418 178.512C212.538 178.61 211.56 178.707 210.583 178.707C208.335 178.707 206.478 178.512 205.109 178.026C203.741 177.539 202.666 176.954 201.884 176.175C201.102 175.299 200.613 174.325 200.32 173.059C200.027 171.793 199.831 170.332 199.831 168.774V145.693H193.283V139.362H193.185Z" fill="white"/>
<path d="M258.868 157.379L238.537 124.56H249.582L263.95 148.809L278.123 124.56H288.777L268.544 157.379V178.61H259.063V157.379H258.868Z" fill="white"/>
<path d="M292.491 161.177C292.491 162.736 292.687 164.197 293.175 165.56C293.566 167.021 294.25 168.189 295.13 169.261C296.01 170.332 297.085 171.208 298.356 171.793C299.626 172.377 301.288 172.767 303.047 172.767C305.589 172.767 307.641 172.182 309.205 171.111C310.769 170.04 311.942 168.384 312.626 166.242H320.836C320.348 168.384 319.566 170.235 318.491 171.89C317.415 173.546 316.047 174.909 314.483 176.078C312.919 177.247 311.16 178.026 309.205 178.61C307.25 179.194 305.198 179.486 303.047 179.486C299.919 179.486 297.183 179 294.837 177.928C292.491 176.954 290.438 175.494 288.777 173.643C287.115 171.793 285.845 169.65 285.063 167.118C284.183 164.586 283.792 161.859 283.792 158.84C283.792 156.113 284.281 153.386 285.16 150.952C286.04 148.42 287.311 146.277 288.972 144.329C290.634 142.479 292.589 140.921 294.935 139.849C297.28 138.778 299.92 138.194 302.852 138.194C305.98 138.194 308.716 138.876 311.16 140.142C313.603 141.408 315.656 143.161 317.318 145.206C318.979 147.348 320.152 149.783 320.836 152.51C321.618 155.237 321.716 158.061 321.423 160.983H292.491V161.177ZM312.724 155.529C312.626 154.166 312.333 152.899 311.844 151.633C311.355 150.367 310.671 149.296 309.889 148.322C309.01 147.348 308.032 146.667 306.859 146.082C305.686 145.498 304.318 145.206 302.852 145.206C301.288 145.206 299.92 145.498 298.747 145.985C297.476 146.472 296.401 147.251 295.521 148.225C294.641 149.199 293.957 150.27 293.371 151.536C292.882 152.802 292.589 154.166 292.491 155.626H312.724V155.529Z" fill="white"/>
<path d="M360.911 169.845C360.911 170.916 361.009 171.695 361.302 172.085C361.595 172.572 362.084 172.767 362.963 172.767C363.257 172.767 363.55 172.767 363.843 172.767C364.234 172.767 364.625 172.669 365.016 172.572V178.513C364.723 178.61 364.332 178.707 363.843 178.902C363.354 179 362.866 179.097 362.377 179.194C361.888 179.292 361.4 179.389 360.813 179.389C360.324 179.486 359.836 179.486 359.543 179.486C357.783 179.486 356.317 179.097 355.144 178.415C353.971 177.733 353.189 176.467 352.896 174.714C351.137 176.37 349.084 177.636 346.543 178.318C344.001 179.097 341.656 179.486 339.31 179.486C337.55 179.486 335.889 179.292 334.227 178.805C332.566 178.318 331.197 177.636 329.927 176.662C328.656 175.688 327.678 174.52 326.994 173.059C326.212 171.598 325.919 169.942 325.919 167.995C325.919 165.56 326.408 163.612 327.288 162.054C328.167 160.496 329.34 159.327 330.806 158.451C332.272 157.574 333.836 156.99 335.693 156.6C337.453 156.211 339.31 155.919 341.167 155.724C342.731 155.432 344.197 155.237 345.663 155.042C347.129 154.945 348.302 154.75 349.377 154.36C350.452 154.068 351.332 153.581 351.919 152.997C352.505 152.413 352.896 151.439 352.896 150.173C352.896 149.101 352.603 148.127 352.114 147.446C351.625 146.764 350.941 146.18 350.159 145.79C349.377 145.401 348.498 145.206 347.52 145.011C346.543 144.914 345.663 144.816 344.783 144.816C342.34 144.816 340.385 145.303 338.821 146.374C337.257 147.348 336.378 148.907 336.182 151.049H327.483C327.678 148.517 328.265 146.472 329.34 144.816C330.415 143.161 331.784 141.797 333.445 140.823C335.107 139.849 336.964 139.07 339.017 138.681C341.069 138.291 343.22 138.096 345.37 138.096C347.325 138.096 349.182 138.291 351.039 138.681C352.896 139.07 354.558 139.752 356.122 140.629C357.588 141.505 358.858 142.674 359.738 144.135C360.618 145.595 361.106 147.348 361.106 149.394V169.845H360.911ZM352.212 158.938C350.941 159.814 349.28 160.301 347.325 160.496C345.37 160.691 343.513 160.983 341.558 161.275C340.678 161.47 339.799 161.664 338.919 161.957C338.039 162.249 337.257 162.638 336.671 163.125C335.987 163.612 335.498 164.197 335.107 164.976C334.716 165.755 334.52 166.729 334.52 167.8C334.52 168.774 334.814 169.553 335.4 170.235C335.987 170.916 336.671 171.403 337.453 171.793C338.235 172.182 339.114 172.475 339.994 172.572C340.971 172.767 341.753 172.767 342.535 172.767C343.513 172.767 344.49 172.669 345.663 172.377C346.738 172.085 347.813 171.695 348.791 171.111C349.768 170.527 350.648 169.748 351.234 168.774C351.919 167.8 352.212 166.729 352.212 165.365V158.938Z" fill="white"/>
<path d="M370.196 139.363H378.309V146.959H378.505C378.798 145.888 379.286 144.914 379.971 143.842C380.655 142.869 381.632 141.895 382.61 141.116C383.685 140.239 384.76 139.655 386.031 139.07C387.301 138.583 388.572 138.291 389.94 138.291C390.918 138.291 391.602 138.291 391.993 138.389C392.384 138.486 392.775 138.486 393.166 138.583V146.861C392.579 146.764 391.895 146.667 391.309 146.569C390.722 146.472 390.038 146.472 389.452 146.472C387.986 146.472 386.617 146.764 385.347 147.348C384.076 147.933 382.903 148.809 381.926 149.88C380.948 151.049 380.166 152.413 379.677 154.068C379.091 155.724 378.798 157.672 378.798 159.814V178.415H370.099V139.363H370.196Z" fill="white"/>
<path d="M48.5258 7.0119C49.5032 6.91451 50.3829 6.62234 51.0671 6.33018C51.7513 5.94063 52.4355 5.3563 52.9242 4.57719C53.4129 3.79808 53.8039 2.72681 53.9994 1.26599H56.2474V32.1381H53.4129V9.25183H45.2025V7.30406C46.4732 7.20667 47.5484 7.10928 48.5258 7.0119Z" fill="white"/>
<path d="M67.0969 32.1381C67.0969 30.5799 67.3901 29.2165 67.8789 28.0478C68.3676 26.8791 69.0518 25.8079 69.8337 24.834C70.6157 23.8601 71.5931 23.081 72.6682 22.3019C73.7434 21.5228 74.7208 20.7437 75.8938 20.062C76.9689 19.3803 78.0441 18.6011 79.1193 17.822C80.1944 17.0429 81.1719 16.2638 82.0515 15.3873C82.9312 14.5108 83.5177 13.6343 84.0064 12.7579C84.3974 11.8814 84.6906 10.8101 84.6906 9.54404C84.6906 8.57016 84.4951 7.69366 84.1041 6.91456C83.7132 6.13545 83.2245 5.45374 82.638 4.96679C82.0515 4.38246 81.2696 3.99291 80.3899 3.70075C79.5102 3.40858 78.6305 3.31119 77.7509 3.31119C76.4802 3.31119 75.405 3.50597 74.5254 3.99291C73.6457 4.47985 72.8637 5.06418 72.375 5.84329C71.7886 6.62239 71.3976 7.49889 71.2021 8.57016C70.7134 9.73882 70.6157 10.8101 70.6157 11.9787H67.7811C67.7811 10.4205 67.9766 8.95971 68.3676 7.59628C68.7585 6.23284 69.345 5.06418 70.2247 4.0903C71.0066 3.11642 72.0818 2.33731 73.3525 1.85037C74.6231 1.26604 76.0892 0.973877 77.7509 0.973877C79.1193 0.973877 80.3899 1.16865 81.5628 1.55821C82.7357 1.94776 83.7132 2.4347 84.5928 3.21381C85.4725 3.89552 86.1567 4.86941 86.6454 5.94068C87.1342 7.01195 87.3296 8.27799 87.3296 9.73882C87.3296 11.0049 87.1342 12.1735 86.6454 13.2448C86.2545 14.3161 85.668 15.2899 84.8861 16.1664C84.2019 17.0429 83.3222 17.822 82.4425 18.6011C81.4651 19.3803 80.4877 20.062 79.5102 20.6463C78.7283 21.1332 77.9464 21.7176 76.8712 22.3019C75.8938 22.8862 74.9163 23.5679 73.9389 24.3471C72.9615 25.1262 72.1795 25.9053 71.4953 26.7818C70.8111 27.6583 70.3224 28.6321 70.1269 29.606H87.3296V32.1381H67.0969Z" fill="white"/>
<path d="M105.021 9.3493H107.855V18.9907H120.855V9.3493H123.69V32.1381H120.855V21.4254H107.855V32.1381H105.021V9.3493Z" fill="white"/>
<path d="M138.449 32.7224C136.69 32.7224 135.126 32.4303 133.855 31.7486C132.487 31.1642 131.411 30.2877 130.434 29.2165C129.554 28.1452 128.87 26.8791 128.381 25.4183C127.893 23.9575 127.697 22.3993 127.697 20.7437C127.697 19.0881 127.893 17.6273 128.381 16.069C128.87 14.6082 129.554 13.3422 130.434 12.2709C131.314 11.1996 132.487 10.3231 133.855 9.64142C135.223 8.95971 136.69 8.66754 138.449 8.66754C140.208 8.66754 141.772 8.95971 143.043 9.64142C144.411 10.3231 145.486 11.1996 146.464 12.2709C147.343 13.3422 148.028 14.6082 148.516 16.069C149.005 17.5299 149.201 19.0881 149.201 20.7437C149.201 22.3993 149.005 23.9575 148.516 25.4183C148.028 26.8791 147.343 28.1452 146.464 29.2165C145.584 30.2877 144.411 31.1642 143.043 31.7486C141.772 32.4303 140.208 32.7224 138.449 32.7224ZM138.449 30.3851C139.817 30.3851 140.892 30.093 141.968 29.5086C142.945 28.9243 143.825 28.2426 144.509 27.2687C145.193 26.3922 145.682 25.3209 145.975 24.1523C146.268 22.9836 146.464 21.815 146.464 20.6463C146.464 19.4776 146.268 18.309 145.975 17.1403C145.682 15.9717 145.095 14.9978 144.509 14.0239C143.825 13.1474 143.043 12.3683 141.968 11.784C140.99 11.1996 139.817 10.9075 138.449 10.9075C137.08 10.9075 136.005 11.1996 134.93 11.784C133.953 12.3683 133.073 13.05 132.389 14.0239C131.705 14.9004 131.216 15.9717 130.923 17.1403C130.629 18.309 130.434 19.4776 130.434 20.6463C130.434 21.815 130.629 22.9836 130.923 24.1523C131.216 25.3209 131.802 26.2948 132.389 27.2687C133.073 28.1452 133.855 28.9243 134.93 29.5086C136.005 30.093 137.178 30.3851 138.449 30.3851Z" fill="white"/>
<path d="M159.17 22.8863C157.118 22.6915 155.554 22.1072 154.283 20.8411C153.11 19.6725 152.524 18.1142 152.524 16.0691C152.524 15.0952 152.719 14.1213 153.013 13.3422C153.306 12.4657 153.794 11.784 154.381 11.1997C154.967 10.6154 155.652 10.1284 156.531 9.83625C157.411 9.54408 158.388 9.3493 159.366 9.3493H170.411V32.1381H167.576V23.081H162.2L154.381 32.1381H150.764L159.17 22.8863ZM167.772 20.7437V11.6866H160.148C158.584 11.6866 157.411 12.0762 156.629 12.9527C155.847 13.8292 155.358 14.9004 155.358 16.1665C155.358 17.5299 155.749 18.6012 156.629 19.3803C157.411 20.2568 158.682 20.6463 160.148 20.6463H167.772V20.7437Z" fill="white"/>
<path d="M185.659 32.7224C183.606 32.7224 181.847 32.3329 180.478 31.5538C179.11 30.7747 178.035 29.8008 177.253 28.5347C176.471 27.2687 175.884 25.8079 175.591 24.1523C175.298 22.4967 175.102 20.8411 175.102 19.0881C175.102 18.0168 175.102 16.8482 175.2 15.6795C175.298 14.5108 175.396 13.3422 175.689 12.1735C175.884 11.0049 176.177 9.9336 176.568 8.86233C176.959 7.79106 177.35 6.81718 177.937 6.03807C179.012 4.47986 180.185 3.3112 181.651 2.62948C183.117 1.94776 184.877 1.55821 187.125 1.36344L189.275 1.26605C190.448 1.16866 191.23 1.07127 191.621 0.876494C192.012 0.681718 192.305 0.389553 192.5 0H195.628C195.433 1.36344 194.749 2.23993 193.869 2.72687C192.891 3.21381 191.425 3.50598 189.47 3.60336L186.049 3.89553C183.41 4.09031 181.456 4.9668 180.087 6.71979C178.719 8.37539 177.839 11.0049 177.253 14.5108H177.35C178.132 12.9526 179.207 11.784 180.771 10.8101C182.238 9.83621 183.997 9.44666 185.854 9.44666C187.418 9.44666 188.786 9.73882 190.057 10.2258C191.328 10.7127 192.403 11.4918 193.282 12.5631C194.162 13.537 194.944 14.803 195.433 16.2638C195.921 17.7247 196.215 19.2829 196.215 21.1332C196.215 22.8862 195.921 24.5418 195.433 26.0027C194.944 27.4635 194.26 28.7295 193.282 29.7034C192.305 30.7747 191.23 31.5538 189.959 32.0407C188.689 32.4303 187.222 32.7224 185.659 32.7224ZM185.659 30.3851C186.734 30.3851 187.809 30.1903 188.786 29.7034C189.764 29.2165 190.546 28.6321 191.23 27.7556C191.914 26.8792 192.5 25.9053 192.891 24.7366C193.282 23.5679 193.478 22.3019 193.478 20.9385C193.478 19.575 193.282 18.309 192.891 17.1403C192.5 15.9717 192.012 14.9978 191.23 14.2187C190.546 13.4396 189.764 12.7579 188.786 12.3683C187.809 11.8814 186.831 11.6866 185.756 11.6866C184.583 11.6866 183.508 11.8814 182.531 12.3683C181.553 12.8552 180.771 13.4396 179.989 14.2187C179.305 14.9978 178.719 15.9717 178.328 17.1403C177.937 18.309 177.741 19.575 177.741 20.9385C177.741 22.3019 177.937 23.6653 178.328 24.7366C178.719 25.9053 179.207 26.8792 179.989 27.7556C180.674 28.6321 181.553 29.2165 182.433 29.7034C183.508 30.1903 184.486 30.3851 185.659 30.3851Z" fill="white"/>
<path d="M200.418 9.34926H202.959V13.6343H203.057C203.741 12.0761 204.718 10.8101 206.184 9.93359C207.651 9.05709 209.312 8.66754 211.169 8.66754C212.929 8.66754 214.395 8.95971 215.665 9.64142C216.936 10.3231 218.011 11.1996 218.891 12.2709C219.771 13.3422 220.357 14.6082 220.748 16.069C221.139 17.5299 221.335 19.0881 221.335 20.6463C221.335 22.3019 221.139 23.8601 220.748 25.3209C220.357 26.7817 219.673 28.0478 218.891 29.1191C218.011 30.1903 216.936 31.0668 215.665 31.7485C214.395 32.3329 212.831 32.7224 211.169 32.7224C210.29 32.7224 209.508 32.625 208.628 32.4303C207.846 32.2355 207.064 31.9433 206.38 31.4564C205.696 31.0668 205.012 30.4825 204.523 29.8982C203.936 29.3138 203.545 28.5347 203.252 27.7556H203.154V40.4161H200.32V9.34926H200.418ZM211.169 30.3851C212.538 30.3851 213.613 30.0929 214.59 29.5086C215.568 28.9243 216.35 28.2426 216.936 27.2687C217.523 26.3922 218.011 25.3209 218.304 24.1523C218.598 22.9836 218.695 21.815 218.695 20.6463C218.695 19.4776 218.598 18.309 218.304 17.1403C218.011 15.9717 217.62 14.9004 216.936 14.0239C216.35 13.1474 215.568 12.3683 214.59 11.784C213.613 11.1996 212.538 10.9075 211.169 10.9075C209.605 10.9075 208.335 11.1996 207.26 11.6866C206.282 12.1735 205.402 12.9526 204.816 13.8291C204.23 14.7056 203.741 15.7769 203.545 16.9455C203.252 18.1142 203.154 19.3802 203.154 20.6463C203.154 21.815 203.252 22.9836 203.545 24.1523C203.839 25.3209 204.327 26.2948 204.914 27.2687C205.5 28.1452 206.38 28.9243 207.357 29.5086C208.433 30.0929 209.703 30.3851 211.169 30.3851Z" fill="white"/>
<path d="M231.597 22.8863C229.545 22.6915 227.981 22.1072 226.71 20.8411C225.537 19.6725 224.951 18.1142 224.951 16.0691C224.951 15.0952 225.146 14.1213 225.44 13.3422C225.733 12.4657 226.222 11.784 226.808 11.1997C227.395 10.6154 228.079 10.1284 228.958 9.83625C229.838 9.54408 230.816 9.3493 231.793 9.3493H242.838V32.1381H240.003V23.081H234.628L226.808 32.1381H223.192L231.597 22.8863ZM240.101 20.7437V11.6866H232.477C230.913 11.6866 229.74 12.0762 228.958 12.9527C228.177 13.8292 227.688 14.9004 227.688 16.1665C227.688 17.5299 228.079 18.6012 228.958 19.3803C229.74 20.2568 231.011 20.6463 232.477 20.6463H240.101V20.7437Z" fill="white"/>
<path d="M-0.73645 178.513V175.883H9.0378L-0.73645 165.755V162.346L8.25586 171.89L19.3985 162.054V165.463L9.91748 174.033L11.8723 176.078H19.4962V178.707H-0.73645V178.513Z" fill="#FFB32C"/>
<path d="M19.6917 153.971C19.6917 155.139 19.4962 156.113 19.1052 156.99C18.7143 157.866 18.2256 158.548 17.5414 159.23C16.8572 159.814 16.0752 160.301 15.0978 160.593C14.2181 160.885 13.143 161.08 12.0678 161.08C10.9926 161.08 10.0152 160.885 9.03777 160.593C8.06035 160.301 7.27841 159.814 6.59421 159.23C5.91001 158.645 5.32356 157.866 4.93259 156.99C4.54162 156.113 4.34613 155.139 4.34613 153.971C4.34613 152.802 4.54162 151.828 4.93259 150.952C5.32356 150.075 5.91001 149.296 6.59421 148.712C7.27841 148.127 8.06035 147.641 9.03777 147.348C10.0152 147.056 10.9926 146.861 12.0678 146.861C13.143 146.861 14.1204 147.056 15.0978 147.348C15.9775 147.641 16.8572 148.127 17.5414 148.712C18.2256 149.296 18.7143 150.075 19.1052 150.952C19.4962 151.828 19.6917 152.802 19.6917 153.971ZM17.6391 153.971C17.6391 153.386 17.5414 152.802 17.2481 152.218C17.0527 151.633 16.6617 151.147 16.173 150.757C15.6843 150.367 15.0978 149.978 14.4136 149.783C13.7294 149.588 12.9475 149.394 12.0678 149.394C11.1881 149.394 10.4062 149.491 9.72197 149.783C9.03777 149.978 8.45131 150.367 7.9626 150.757C7.47389 151.147 7.18066 151.633 6.88744 152.218C6.69195 152.802 6.49647 153.386 6.49647 153.971C6.49647 154.555 6.59421 155.139 6.88744 155.724C7.08292 156.308 7.47389 156.795 7.9626 157.185C8.45131 157.574 9.03777 157.964 9.72197 158.158C10.4062 158.353 11.1881 158.548 12.0678 158.548C12.9475 158.548 13.7294 158.451 14.4136 158.158C15.0978 157.964 15.6843 157.574 16.173 157.185C16.6617 156.795 16.9549 156.308 17.2481 155.724C17.4436 155.139 17.6391 154.555 17.6391 153.971Z" fill="#FFB32C"/>
<path d="M4.83484 144.135V141.797H10.6016V134.396H4.83484V132.058H19.3985V134.396H12.6542V141.797H19.3985V144.135H4.83484Z" fill="#FFB32C"/>
<path d="M18.3233 120.08C18.5188 120.275 18.6166 120.469 18.812 120.664C19.0075 120.859 19.1053 121.151 19.3008 121.443C19.3985 121.735 19.4962 122.027 19.594 122.32C19.6917 122.612 19.6917 122.904 19.6917 123.196C19.6917 124.267 19.4962 125.241 19.0075 125.923C18.6166 126.702 18.0301 127.286 17.2482 127.676C16.564 128.163 15.6843 128.455 14.7069 128.65C13.7294 128.845 12.752 128.942 11.7746 128.942C9.42877 128.942 7.6694 128.455 6.30101 127.384C5.03036 126.41 4.34616 124.949 4.34616 123.294C4.34616 123.001 4.34616 122.709 4.4439 122.32C4.54164 122.027 4.63939 121.638 4.83487 121.346C5.03036 121.054 5.1281 120.761 5.32358 120.567C5.51907 120.275 5.71455 120.08 5.91004 119.982H-0.73645V117.645H6.00778C5.8123 117.45 5.61681 117.255 5.42133 117.061C5.22584 116.866 5.03036 116.574 4.93261 116.282C4.73713 115.989 4.63939 115.697 4.54164 115.308C4.4439 115.016 4.4439 114.626 4.4439 114.334C4.4439 112.581 5.1281 111.217 6.39875 110.244C7.6694 109.27 9.52651 108.685 11.8723 108.685C12.8498 108.685 13.8272 108.783 14.8046 108.977C15.782 109.172 16.564 109.562 17.3459 109.951C18.0301 110.438 18.6166 111.023 19.1053 111.704C19.4962 112.483 19.7895 113.36 19.7895 114.431C19.7895 115.016 19.6917 115.502 19.3985 116.184C19.1053 116.769 18.812 117.255 18.4211 117.548H25.0676V119.885H18.3233V120.08ZM17.7369 122.904C17.7369 122.222 17.5414 121.541 17.1504 121.054C16.7595 120.567 16.3685 120.177 15.782 120.08H8.54909C8.15812 120.177 7.86489 120.372 7.57166 120.567C7.27843 120.761 7.08295 121.054 6.98521 121.346C6.78972 121.638 6.69198 121.93 6.69198 122.222C6.59424 122.514 6.59424 122.807 6.59424 123.099C6.59424 123.683 6.69198 124.267 6.98521 124.657C7.27843 125.144 7.6694 125.436 8.15812 125.728C8.64683 126.02 9.23328 126.215 9.91748 126.313C10.6017 126.41 11.2859 126.507 12.0678 126.507C12.752 126.507 13.4362 126.41 14.1204 126.313C14.8046 126.215 15.3911 126.02 15.9775 125.728C16.564 125.436 16.9549 125.047 17.3459 124.657C17.5414 124.267 17.7369 123.683 17.7369 122.904ZM17.7369 114.918C17.7369 114.236 17.5414 113.555 17.2482 113.165C16.8572 112.678 16.4662 112.289 15.8798 112.094C15.2933 111.802 14.7069 111.607 14.0227 111.51C13.3385 111.412 12.6543 111.315 11.9701 111.315C11.1881 111.315 10.4062 111.412 9.81974 111.51C9.13554 111.607 8.54909 111.899 8.06037 112.094C7.57166 112.386 7.18069 112.776 6.88746 113.165C6.59424 113.652 6.49649 114.139 6.49649 114.723C6.49649 115.016 6.49649 115.308 6.59424 115.6C6.69198 115.892 6.78972 116.184 6.88746 116.476C7.08295 116.769 7.27843 116.963 7.47392 117.255C7.6694 117.548 8.06037 117.645 8.45134 117.742H15.782C16.2707 117.645 16.7595 117.353 17.1504 116.769C17.5414 116.282 17.7369 115.697 17.7369 114.918Z" fill="#FFB32C"/>
<path d="M19.6917 99.7256C19.6917 100.894 19.4963 101.868 19.1053 102.745C18.7143 103.621 18.2256 104.303 17.5414 104.887C16.8572 105.471 16.0753 105.861 15.0978 106.153C14.1204 106.445 13.143 106.543 12.0678 106.543C10.9927 106.543 10.0152 106.348 9.03781 106.056C8.06038 105.764 7.27844 105.277 6.59424 104.595C5.91005 104.011 5.42133 103.232 5.03036 102.452C4.63939 101.576 4.44391 100.699 4.44391 99.7256C4.44391 98.4595 4.73714 97.3883 5.22585 96.5118C5.71456 95.6353 6.39876 94.9536 7.27844 94.4666C8.06038 93.9797 9.03781 93.5901 10.0152 93.3953C10.9927 93.2006 11.9701 93.1032 12.8498 93.2006V104.205C13.534 104.205 14.1204 104.108 14.7069 104.011C15.2933 103.816 15.782 103.524 16.2708 103.232C16.7595 102.842 17.0527 102.355 17.3459 101.771C17.6391 101.186 17.7369 100.505 17.7369 99.7256C17.7369 98.7517 17.5414 97.8752 17.0527 97.1935C16.564 96.5118 15.8798 96.1222 14.9024 95.9274V93.5901C16.564 93.8823 17.8346 94.564 18.6166 95.7327C19.3008 96.7065 19.6917 98.07 19.6917 99.7256ZM10.6994 95.83C10.113 95.83 9.62426 96.0248 9.13555 96.2196C8.64684 96.4144 8.15812 96.7065 7.8649 97.0961C7.47393 97.4856 7.1807 97.8752 6.98521 98.3621C6.78973 98.8491 6.69199 99.4334 6.69199 100.018C6.69199 100.602 6.78973 101.186 6.98521 101.673C7.1807 102.16 7.47393 102.55 7.8649 102.939C8.25587 103.329 8.64684 103.621 9.13555 103.816C9.62426 104.011 10.2107 104.108 10.6994 104.205V95.83Z" fill="#FFB32C"/>
<path d="M4.83488 90.7659V88.4286H6.78973V88.3312C6.00779 87.9416 5.42133 87.3573 5.03036 86.4808C4.63939 85.6043 4.44391 84.7278 4.44391 83.6565C4.44391 82.4879 4.63939 81.514 5.03036 80.7349C5.42133 79.8584 6.00779 79.1767 6.69199 78.6897C7.37618 78.1054 8.25587 77.7158 9.13555 77.4237C10.0152 77.1315 10.9927 77.0341 12.0678 77.0341C13.143 77.0341 14.1204 77.1315 15.0001 77.4237C15.8798 77.7158 16.6617 78.1054 17.3459 78.6897C18.0301 79.2741 18.6166 79.9558 19.0075 80.7349C19.3985 81.6114 19.594 82.4879 19.594 83.6565C19.594 84.0461 19.594 84.4356 19.4963 84.8252C19.3985 85.2147 19.3008 85.7017 19.1053 86.0912C18.9098 86.4808 18.7143 86.9677 18.4211 87.3573C18.1279 87.7468 17.7369 88.039 17.3459 88.3312V88.4286H24.8721V90.7659H4.83488ZM17.6391 83.8513C17.6391 83.0722 17.4437 82.3905 17.1504 81.8061C16.8572 81.2218 16.3685 80.8323 15.8798 80.4427C15.3911 80.1505 14.7069 79.8584 14.1204 79.761C13.4362 79.5662 12.752 79.5662 12.0678 79.5662C11.3836 79.5662 10.6994 79.6636 10.113 79.8584C9.42878 80.0532 8.84232 80.3453 8.35361 80.6375C7.8649 81.027 7.47393 81.514 7.1807 82.0009C6.88747 82.5853 6.69199 83.267 6.69199 84.0461C6.69199 84.8252 6.88747 85.5069 7.1807 86.0912C7.47393 86.6756 7.96264 87.0651 8.45135 87.4547C8.94006 87.8442 9.52652 88.039 10.2107 88.2338C10.8949 88.4286 11.5791 88.4286 12.1656 88.4286C12.8498 88.4286 13.534 88.3312 14.2182 88.1364C14.9024 87.9416 15.4888 87.7468 15.9775 87.3573C16.4662 86.9677 16.8572 86.4808 17.2482 85.8965C17.4437 85.4095 17.6391 84.7278 17.6391 83.8513Z" fill="#FFB32C"/>
<path d="M19.6917 68.0744C19.6917 69.243 19.4963 70.2169 19.1053 71.0934C18.7143 71.9699 18.2256 72.6516 17.5414 73.2359C16.8572 73.8203 16.0753 74.2098 15.0978 74.502C14.1204 74.7941 13.143 74.8915 12.0678 74.8915C10.9927 74.8915 10.0152 74.6968 9.03781 74.4046C8.06038 74.1124 7.27844 73.6255 6.59424 72.9438C5.91005 72.3594 5.42133 71.5803 5.03036 70.8012C4.63939 70.1195 4.44391 69.1456 4.44391 68.1717C4.44391 66.9057 4.73714 65.8344 5.22585 64.9579C5.71456 64.0814 6.39876 63.3997 7.27844 62.9128C8.06038 62.4258 9.03781 62.0363 10.0152 61.8415C10.9927 61.6467 11.9701 61.5493 12.8498 61.6467V72.5542C13.534 72.5542 14.1204 72.4568 14.7069 72.3594C15.2933 72.1647 15.782 71.8725 16.2708 71.5803C16.7595 71.1908 17.0527 70.7038 17.3459 70.1195C17.6391 69.5352 17.7369 68.8535 17.7369 68.0744C17.7369 67.1005 17.5414 66.224 17.0527 65.5423C16.564 64.8605 15.8798 64.471 14.9024 64.2762V61.9389C16.564 62.2311 17.8346 62.9128 18.6166 64.0814C19.3008 65.0553 19.6917 66.4188 19.6917 68.0744ZM10.6994 64.0814C10.113 64.0814 9.62426 64.2762 9.13555 64.471C8.64684 64.6658 8.15812 64.9579 7.8649 65.3475C7.47393 65.737 7.1807 66.1266 6.98521 66.6135C6.78973 67.1005 6.69199 67.6848 6.69199 68.2691C6.69199 68.8535 6.78973 69.4378 6.98521 69.9247C7.1807 70.4117 7.47393 70.8012 7.8649 71.1908C8.25587 71.5803 8.64684 71.8725 9.13555 72.0673C9.62426 72.262 10.2107 72.3594 10.6994 72.4568V64.0814Z" fill="#FFB32C"/>
<path d="M4.83484 59.1146V56.7773H10.6016V49.3758H4.83484V47.0385H19.3985V49.3758H12.6542V56.7773H19.3985V59.1146H4.83484Z" fill="#FFB32C"/>
<path d="M19.3985 32.1382V43.4352H4.83484V41.0979H17.2481V34.2807H4.83484V31.9434H17.2481V29.9957H23.7969V32.1382H19.3985Z" fill="#FFB32C"/>
<path d="M4.83484 27.5608V25.2235H16.7594L4.83484 18.4063V15.3873H19.3985V17.7246H7.47389L19.3985 24.5418V27.5608H4.83484Z" fill="#FFB32C"/>
<path d="M13.7295 8.66754C13.534 9.73881 13.143 10.5179 12.3611 11.1996C11.5791 11.8814 10.6017 12.1735 9.33106 12.1735C7.96267 12.1735 6.8875 11.784 6.10556 10.9075C5.32362 10.1284 4.93265 8.9597 4.93265 7.59627V0.194763H19.4963V2.53208H13.925V5.84328L19.4963 10.3231V13.537L13.7295 8.66754ZM11.6769 2.62947H6.8875V6.81716C6.8875 7.79105 7.08298 8.57015 7.5717 8.9597C7.96267 9.44664 8.54912 9.64142 9.33106 9.64142C10.113 9.64142 10.6995 9.44664 11.0904 8.9597C11.4814 8.47276 11.6769 7.79105 11.6769 6.81716V2.62947Z" fill="#FFB32C"/>
<path d="M72.8143 209.093C72.8143 210.748 72.2278 211.527 70.9572 211.527C69.6865 211.527 69.1001 210.748 69.1001 209.093V204.515H67.4384V209.287C67.4384 211.722 68.7091 213.086 70.9572 213.086C73.2053 213.086 74.4759 211.722 74.4759 209.287V204.515H72.8143V209.093Z" fill="white"/>
<path d="M82.2953 208.606C82.2953 210.651 81.0247 211.527 79.6563 211.527C77.9947 211.527 77.115 210.066 77.115 208.606C77.115 206.658 78.3856 205.684 79.6563 205.684C81.2202 205.684 82.2953 206.95 82.2953 208.606ZM80.0472 204.223C78.8743 204.223 77.8969 204.808 77.2127 205.781V204.515H75.5511V216.592H77.2127V211.722C77.8969 212.696 78.8743 213.183 79.9495 213.183C81.1224 213.183 82.1976 212.696 82.8818 211.819C83.566 211.04 83.9569 209.872 83.9569 208.703C83.9569 207.534 83.566 206.463 82.8818 205.684C82.1976 204.71 81.1224 204.223 80.0472 204.223Z" fill="white"/>
<path d="M58.9348 204.613C58.4461 204.321 58.0551 204.223 57.5664 204.223C56.5889 204.223 55.7093 204.808 55.3183 205.684V204.418H53.6567V212.793H55.3183V208.703C55.3183 207.34 55.5138 205.879 57.1754 205.879C57.4686 205.879 57.6641 205.879 57.8596 205.976L58.9348 204.613Z" fill="white"/>
<path d="M51.0177 204.418V205.781C50.3335 204.808 49.3561 204.223 48.1831 204.223C47.0102 204.223 46.0328 204.71 45.3486 205.587C44.6644 206.366 44.2734 207.437 44.2734 208.606C44.2734 209.774 44.6644 210.943 45.3486 211.722C46.0328 212.599 47.108 213.086 48.2809 213.086C49.3561 213.086 50.3335 212.501 51.0177 211.625V212.891C51.0177 214.352 50.7244 215.812 48.6719 215.812C47.2057 215.812 46.2283 214.936 46.2283 213.572V213.475H44.6644V213.572C44.6644 215.812 46.326 217.371 48.6719 217.371C52.2883 217.371 52.777 214.741 52.777 212.404V204.515H51.0177V204.418ZM48.4764 211.527C46.8147 211.527 45.9351 210.066 45.9351 208.606C45.9351 206.658 47.2057 205.684 48.4764 205.684C50.0402 205.684 51.1154 206.853 51.1154 208.606C51.0177 210.651 49.747 211.527 48.4764 211.527Z" fill="white"/>
<path d="M99.2048 207.826C98.4229 208.119 97.6409 208.313 97.0545 208.313C96.5658 208.313 96.2726 208.216 96.0771 207.924C95.8816 207.632 95.8816 207.242 95.9793 206.658L96.468 204.515C96.6635 203.444 96.5658 202.665 96.1748 202.178C95.7838 201.691 95.1974 201.496 94.4154 201.496C93.5358 201.496 92.7538 201.788 91.9719 202.47C91.6787 201.886 90.9945 201.496 90.1148 201.496C89.3328 201.496 88.6486 201.788 87.9644 202.275C87.6712 201.788 86.8893 201.399 86.0096 201.399C85.6186 201.399 85.1299 201.496 84.7389 201.594H84.6412L84.348 203.152L84.7389 202.957C85.3254 202.762 85.8141 202.762 86.0096 202.957C86.2051 203.152 86.2051 203.444 86.1073 203.834L85.0322 208.411H86.8893L87.6712 205.197C88.0622 203.639 88.7464 202.86 89.7238 202.86C90.017 202.86 90.2125 202.957 90.3103 203.152C90.5057 203.347 90.5057 203.736 90.408 204.321L89.4306 208.411H91.2877L92.1674 204.613C92.3629 203.639 93.2425 202.86 94.1222 202.86C94.4154 202.86 94.6109 202.957 94.7087 203.152C94.9042 203.347 94.9042 203.736 94.8064 204.321L94.3177 206.658C94.1222 207.632 94.22 208.411 94.7087 208.898C95.1974 209.482 95.9793 209.774 96.9568 209.774C97.7387 209.774 98.6184 209.579 99.4981 209.19L99.5958 209.093L99.9868 207.34L99.2048 207.826Z" fill="white"/>
<path d="M66.461 206.853C66.2655 206.268 65.9723 205.879 65.5813 205.489C65.1904 205.1 64.7994 204.807 64.2129 204.613C63.7242 204.418 63.04 204.321 62.3558 204.321C61.6716 204.321 61.0852 204.418 60.4987 204.613C60.01 204.807 59.5213 205.1 59.1303 205.489C58.7394 205.879 58.4461 206.366 58.2507 206.853C58.0552 207.437 57.9574 208.021 57.9574 208.606C57.9574 209.287 58.0552 209.872 58.2507 210.456C58.4461 211.04 58.7394 211.43 59.1303 211.819C59.5213 212.209 59.9123 212.501 60.4987 212.696C60.9874 212.891 61.6716 212.988 62.3558 212.988C63.04 212.988 63.6265 212.891 64.2129 212.696C64.7017 212.501 65.1904 212.209 65.5813 211.819C65.9723 211.43 66.2655 210.943 66.461 210.456C66.6565 209.872 66.7542 209.287 66.7542 208.606C66.7542 208.021 66.6565 207.34 66.461 206.853ZM63.6265 211.43C63.3333 211.625 62.9423 211.722 62.4536 211.722C62.0626 211.722 61.6716 211.625 61.2807 211.43C60.9874 211.235 60.6942 211.04 60.4987 210.748C60.3032 210.456 60.1078 210.164 60.01 209.774C59.9123 209.385 59.9123 208.995 59.9123 208.606C59.9123 208.216 59.9123 207.827 60.01 207.534C60.1078 207.145 60.3032 206.853 60.4987 206.56C60.6942 206.268 60.9874 206.074 61.2807 205.879C61.5739 205.684 61.9649 205.587 62.4536 205.587C62.8445 205.587 63.2355 205.684 63.6265 205.879C63.9197 206.074 64.2129 206.268 64.4084 206.56C64.6039 206.853 64.7994 207.145 64.8971 207.534C64.9949 207.924 64.9949 208.313 64.9949 208.606C64.9949 208.995 64.9949 209.385 64.8971 209.774C64.7994 210.164 64.6039 210.456 64.4084 210.748C64.2129 211.04 63.9197 211.332 63.6265 211.43Z" fill="white"/>
<path d="M327.238 217.955C327.14 217.955 326.945 217.857 326.749 217.565L326.261 216.202H323.231L322.742 217.565C322.644 217.857 322.449 217.955 322.253 217.955C322.058 217.955 321.764 217.76 321.764 217.468C321.764 217.37 321.764 217.273 321.862 217.176L324.208 211.332C324.404 210.845 324.599 210.845 324.795 210.845C324.99 210.845 325.185 210.943 325.381 211.332L327.727 217.176C327.825 217.273 327.825 217.37 327.825 217.468C327.727 217.76 327.434 217.955 327.238 217.955ZM325.87 215.228L324.697 212.111L323.524 215.228H325.87ZM332.907 211.625C333.005 211.527 333.005 211.332 333.005 211.332C333.005 211.04 332.809 210.845 332.516 210.845C332.321 210.845 332.125 210.943 332.027 211.235L329.975 216.591L327.922 211.235C327.825 210.943 327.629 210.845 327.434 210.845C327.14 210.845 326.945 211.04 326.945 211.332C326.945 211.43 326.945 211.527 327.043 211.625L329.291 217.37C329.486 217.857 329.779 217.955 329.975 217.955C330.17 217.955 330.464 217.857 330.659 217.37L332.907 211.625ZM337.697 214.644C338.088 214.644 338.185 214.351 338.185 214.254C338.185 214.157 338.088 213.864 337.697 213.864H334.764V211.819H337.892C338.283 211.819 338.381 211.527 338.381 211.43C338.381 211.332 338.283 211.04 337.892 211.04H334.373C333.982 211.04 333.787 211.235 333.787 211.625V217.468C333.787 217.857 333.982 218.052 334.373 218.052H337.99C338.381 218.052 338.478 217.76 338.478 217.663C338.478 217.565 338.381 217.273 337.99 217.273H334.764V214.936H337.697V214.644ZM353.238 217.955C353.14 217.955 352.944 217.857 352.749 217.565L352.26 216.202H349.23L348.741 217.565C348.644 217.857 348.448 217.955 348.253 217.955C348.057 217.955 347.764 217.76 347.764 217.468C347.764 217.37 347.764 217.273 347.862 217.176L350.208 211.332C350.403 210.845 350.599 210.845 350.794 210.845C350.99 210.845 351.185 210.943 351.38 211.332L353.726 217.176C353.824 217.273 353.824 217.37 353.824 217.468C353.726 217.76 353.531 217.955 353.238 217.955ZM351.967 215.228L350.794 212.111L349.621 215.228H351.967ZM346.493 217.955C346.689 217.955 346.982 217.857 346.982 217.37V211.43C346.982 210.845 346.591 210.748 346.396 210.748C346.2 210.748 345.907 210.845 345.711 211.332L343.366 216.591L341.02 211.332C340.824 210.845 340.531 210.748 340.336 210.748C340.14 210.748 339.749 210.845 339.749 211.43V217.37C339.749 217.857 340.042 217.857 340.238 217.857C340.433 217.857 340.727 217.76 340.727 217.37V212.891L342.779 217.468C342.975 217.857 343.17 217.955 343.366 217.955C343.561 217.955 343.757 217.857 343.952 217.468L346.005 212.793V217.37C346.005 217.857 346.298 217.955 346.493 217.955ZM359.884 217.468C359.884 217.37 359.884 217.176 359.689 217.078L356.659 214.157L359.493 211.722C359.689 211.527 359.689 211.43 359.689 211.332C359.689 211.04 359.493 210.943 359.2 210.943C359.102 210.943 358.907 211.04 358.809 211.138L355.583 214.059V211.332C355.583 210.845 355.29 210.748 355.095 210.748C354.899 210.748 354.606 210.845 354.606 211.332V217.37C354.606 217.857 354.899 217.955 355.095 217.955C355.29 217.955 355.583 217.857 355.583 217.37V214.254L359.004 217.76C359.102 217.955 359.298 217.955 359.395 217.955C359.689 217.955 359.884 217.663 359.884 217.468ZM364.771 214.644C365.162 214.644 365.26 214.351 365.26 214.254C365.26 214.157 365.162 213.864 364.771 213.864H361.839V211.819H364.967C365.358 211.819 365.455 211.527 365.455 211.43C365.455 211.332 365.358 211.04 364.967 211.04H361.448C361.057 211.04 360.862 211.235 360.862 211.625V217.468C360.862 217.857 361.057 218.052 361.448 218.052H365.064C365.455 218.052 365.553 217.76 365.553 217.663C365.553 217.565 365.455 217.273 365.064 217.273H361.839V214.936H364.771V214.644ZM368.681 214.741H367.606V217.37C367.606 217.857 367.313 217.955 367.117 217.955C366.922 217.955 366.628 217.857 366.628 217.37V211.43C366.628 211.04 366.824 210.845 367.215 210.845H368.876C370.245 210.845 371.32 211.332 371.32 212.793C371.32 213.767 370.636 214.449 369.658 214.644L371.32 217.078C371.418 217.176 371.418 217.37 371.418 217.37C371.418 217.663 371.222 217.857 370.929 217.857C370.831 217.857 370.636 217.76 370.538 217.565L368.681 214.741ZM367.606 213.864H368.779C369.658 213.864 370.44 213.572 370.44 212.696C370.44 211.819 369.756 211.625 368.876 211.625H367.703V213.864H367.606ZM322.155 210.845C321.862 210.748 321.569 210.845 321.471 211.138L319.516 216.397L318.148 211.138C318.05 210.943 317.855 210.748 317.659 210.748C317.464 210.748 317.268 210.845 317.171 211.138L315.802 216.397L313.847 211.138C313.75 210.845 313.456 210.748 313.163 210.845C312.87 210.943 312.772 211.235 312.87 211.527L315.118 217.468C315.216 217.663 315.313 217.76 315.509 217.857C315.9 217.955 316.291 217.857 316.389 217.468V217.37L317.562 212.793L318.734 217.37V217.468C318.832 217.857 319.321 218.052 319.614 217.857C319.81 217.76 319.907 217.663 320.005 217.468L322.253 211.527C322.546 211.235 322.449 210.943 322.155 210.845Z" fill="white"/>
<path d="M351.869 207.242C351.771 207.242 351.674 207.242 351.576 207.242C351.185 207.242 350.794 206.95 350.696 206.561L349.328 202.276L347.959 206.561C347.862 206.95 347.471 206.561 347.08 206.561C346.689 206.561 346.298 206.95 346.2 206.561L344.832 202.276L343.463 206.561C343.365 206.95 342.974 207.242 342.583 207.242C342.486 207.242 342.388 207.242 342.29 207.242C341.801 207.048 341.508 206.561 341.704 206.074L343.952 199.159C344.05 198.77 344.441 199.159 344.832 199.159C345.222 199.159 345.613 198.77 345.711 199.159L347.08 203.444L348.448 199.159C348.546 198.77 348.937 199.159 349.328 199.159C349.719 199.159 350.11 198.77 350.207 199.159L352.455 206.074C352.651 206.561 352.358 207.048 351.869 207.242ZM341.997 198.575C341.899 198.575 341.801 198.575 341.704 198.575C341.313 198.575 340.922 198.867 340.824 199.257L339.456 203.542L338.087 199.257C337.99 198.867 337.599 199.257 337.208 199.257C336.817 199.257 336.426 198.867 336.328 199.257L334.959 203.542L333.591 199.257C333.493 198.867 333.102 198.575 332.711 198.575C332.614 198.575 332.516 198.575 332.418 198.575C331.929 198.77 331.636 199.257 331.832 199.743L334.08 206.658C334.178 207.048 334.569 206.658 334.959 206.658C335.35 206.658 335.741 207.048 335.839 206.658L337.208 202.373L338.576 206.658C338.674 207.048 339.065 206.658 339.456 206.658C339.847 206.658 340.238 207.048 340.335 206.658L342.583 199.743C342.779 199.257 342.486 198.672 341.997 198.575Z" fill="white"/>
<path d="M349.328 198.477C349.719 198.477 350.11 198.769 350.207 199.159C350.305 199.354 350.305 199.548 350.207 199.743L349.328 202.373L348.448 199.743C348.35 199.548 348.35 199.354 348.448 199.159C348.546 198.769 348.937 198.477 349.328 198.477ZM343.854 199.159C343.756 199.354 343.756 199.548 343.854 199.743L344.734 202.373L345.613 199.743C345.711 199.548 345.711 199.354 345.613 199.159C345.516 198.769 345.125 198.477 344.734 198.477C344.343 198.477 343.952 198.769 343.854 199.159ZM339.456 207.242C339.847 207.242 340.238 206.95 340.335 206.56C340.433 206.366 340.433 206.171 340.335 205.976L339.456 203.347L338.576 205.976C338.478 206.171 338.478 206.366 338.576 206.56C338.674 206.95 339.065 207.242 339.456 207.242ZM334.862 207.242C335.253 207.242 335.644 206.95 335.742 206.56C335.839 206.366 335.839 206.171 335.742 205.976L334.862 203.347L333.982 205.976C333.884 206.171 333.884 206.366 333.982 206.56C334.178 206.95 334.471 207.242 334.862 207.242Z" fill="white"/>
<path d="M337.208 198.477C337.599 198.477 337.99 198.769 338.087 199.159C338.185 199.354 338.185 199.548 338.087 199.743L337.208 202.373L336.328 199.743C336.23 199.548 336.23 199.354 336.328 199.159C336.426 198.769 336.817 198.477 337.208 198.477ZM347.08 207.242C347.471 207.242 347.862 206.95 347.959 206.56C348.057 206.366 348.057 206.171 347.959 205.976L347.08 203.347L346.2 205.976C346.102 206.171 346.102 206.366 346.2 206.56C346.298 206.95 346.591 207.242 347.08 207.242Z" fill="white"/>
<path d="M235.165 213.378H232.721V207.437L231.157 213.475H229.496L227.932 207.437V213.475H225.977V205.1H229.398L230.571 209.58L231.744 205.1H235.165V213.378Z" fill="white"/>
<path d="M242.202 213.378H235.849V205.002H242.202V206.95H238.39V208.216H241.42V210.066H238.39V211.43H242.202V213.378Z" fill="white"/>
<path d="M242.789 205.002H245.916C247.089 205.002 248.067 205.197 249.044 206.074C249.924 206.95 250.315 208.021 250.315 209.287C250.315 210.359 249.924 211.527 249.142 212.306C248.262 213.183 247.285 213.475 246.112 213.475H242.789V205.002ZM245.721 211.527C246.112 211.527 246.307 211.527 246.601 211.333C246.796 211.235 246.992 211.04 247.187 210.748C247.48 210.261 247.578 209.677 247.578 209.093C247.578 208.508 247.382 207.827 247.089 207.34C246.698 206.853 246.307 206.853 245.721 206.853H245.428V211.43H245.721V211.527Z" fill="white"/>
<path d="M253.345 213.378H250.706V205.002H253.345V213.378Z" fill="white"/>
<path d="M258.623 211.722H256.375L255.886 213.378H253.736L256.375 205.002H259.111L261.751 213.378H259.111L258.623 211.722ZM258.232 209.969L257.548 207.534L256.863 209.969H258.232Z" fill="white"/>
<path d="M268.592 210.359C268.397 212.306 267.029 213.572 265.074 213.572C262.532 213.572 261.164 211.722 261.164 209.385C261.164 206.95 262.337 204.905 264.976 204.905C267.126 204.905 268.397 206.171 268.495 208.313L266.051 208.411C266.051 207.729 265.758 206.853 264.976 206.853C263.803 206.853 263.803 208.606 263.803 209.385C263.803 210.261 263.901 211.625 264.976 211.625C265.758 211.625 266.051 210.943 266.149 210.261L268.592 210.359Z" fill="white"/>
<path d="M276.998 209.287C276.998 211.722 275.532 213.572 272.991 213.572C270.45 213.572 268.983 211.625 268.983 209.287C268.983 206.755 270.45 204.905 272.991 204.905C275.532 204.905 276.998 206.755 276.998 209.287ZM271.72 209.287C271.72 210.066 271.818 211.625 272.991 211.625C274.164 211.625 274.262 210.066 274.262 209.287C274.262 208.508 274.164 206.853 272.991 206.853C271.818 206.755 271.72 208.411 271.72 209.287Z" fill="white"/>
<path d="M286.577 213.378H284.133V207.437L282.57 213.475H280.908L279.344 207.437V213.475H277.389V205.1H280.81L281.983 209.58L283.156 205.1H286.577V213.378Z" fill="white"/>
<g opacity="0.5">
<path opacity="0.5" d="M186.098 219.61L183.85 211.04L188.248 218.734L188.15 218.831C187.564 219.221 186.88 219.416 186.195 219.61H186.098ZM184.534 212.696L186.293 219.318C186.88 219.123 187.466 218.929 187.955 218.637L184.534 212.696Z" fill="white"/>
<path opacity="0.5" d="M182.188 219.61H182.09C181.406 219.416 180.82 219.123 180.135 218.831L180.038 218.734L184.045 211.819H184.241V212.014L182.188 219.61ZM180.429 218.636C180.917 218.929 181.504 219.123 182.09 219.318L183.85 212.696L180.429 218.636Z" fill="white"/>
<path opacity="0.5" d="M184.143 219.805H184.045V210.943L186.293 219.513H186.195C185.511 219.805 184.827 219.805 184.143 219.805ZM184.241 212.793V219.61C184.827 219.61 185.414 219.513 186 219.416L184.241 212.793Z" fill="white"/>
<path opacity="0.5" d="M184.143 219.805C183.459 219.805 182.775 219.708 182.09 219.513H181.993L184.241 210.943V219.805H184.143ZM182.286 219.416C182.872 219.513 183.459 219.61 184.045 219.61V212.793L182.286 219.416Z" fill="white"/>
<path opacity="0.5" d="M188.053 218.831L184.045 211.917L184.143 211.722L189.91 217.468L189.812 217.565C189.323 218.052 188.737 218.442 188.15 218.831H188.053ZM184.729 212.598L188.15 218.539C188.639 218.247 189.128 217.857 189.519 217.468L184.729 212.598Z" fill="white"/>
<path opacity="0.5" d="M178.572 217.565C177.985 216.981 177.594 216.397 177.203 215.812L177.106 215.715L183.947 211.722L184.045 211.625L184.143 211.917H184.045L178.572 217.565ZM177.497 215.812C177.79 216.299 178.181 216.786 178.572 217.273L183.361 212.501L177.497 215.812Z" fill="white"/>
<path opacity="0.5" d="M184.143 212.014L177.106 208.021L177.203 207.924C177.594 207.34 177.985 206.755 178.474 206.268L178.572 206.171L184.241 211.819L184.143 212.014ZM177.497 207.924L183.459 211.332L178.572 206.56C178.181 206.95 177.79 207.437 177.497 207.924Z" fill="white"/>
<path opacity="0.5" d="M184.729 212.598L184.143 212.014L184.241 211.917L184.143 212.014L178.474 206.365L178.572 206.268C179.06 205.781 179.647 205.392 180.233 205.002L180.331 204.905L184.729 212.598ZM178.767 206.365L183.556 211.138L180.135 205.197C179.647 205.586 179.158 205.976 178.767 206.365Z" fill="white"/>
<path opacity="0.5" d="M184.534 212.696L180.135 205.002L180.233 204.905C180.82 204.515 181.504 204.32 182.188 204.126H182.286L184.534 212.696ZM180.429 205.197L183.85 211.138L182.09 204.515C181.504 204.613 180.917 204.905 180.429 205.197Z" fill="white"/>
<path opacity="0.5" d="M184.632 212.014H184.143L176.421 209.969V209.872C176.617 209.19 176.91 208.605 177.203 207.924L177.301 207.826L184.632 212.014ZM176.714 209.774L183.361 211.527L177.399 208.119C177.105 208.703 176.91 209.19 176.714 209.774Z" fill="white"/>
<path opacity="0.5" d="M184.143 212.014H176.128V211.917C176.128 211.235 176.226 210.553 176.421 209.872V209.774L184.338 211.917L184.143 212.014ZM176.421 211.819H183.263L176.617 210.066C176.519 210.553 176.421 211.235 176.421 211.819Z" fill="white"/>
<path opacity="0.5" d="M180.233 218.831L180.135 218.734C179.549 218.344 178.963 217.955 178.474 217.468L178.376 217.37L184.045 211.722H184.436L184.241 211.917L180.233 218.831ZM178.767 217.468C179.158 217.857 179.647 218.247 180.135 218.539L183.556 212.598L178.767 217.468Z" fill="white"/>
<path opacity="0.5" d="M177.301 216.007L177.203 215.91C176.812 215.325 176.617 214.644 176.421 213.962V213.865L184.143 211.819H184.632L184.241 212.014L177.301 216.007ZM176.714 214.059C176.91 214.644 177.105 215.228 177.399 215.715L183.361 212.306L176.714 214.059Z" fill="white"/>
<path opacity="0.5" d="M176.519 214.059V213.962C176.324 213.28 176.226 212.598 176.226 211.917V211.819H185.12L176.519 214.059ZM176.421 212.014C176.421 212.598 176.519 213.183 176.617 213.767L183.263 212.014H176.421Z" fill="white"/>
<path opacity="0.5" d="M183.85 212.696L186.098 204.126H186.195C186.88 204.32 187.466 204.613 188.15 204.905L188.248 205.002L183.85 212.696ZM186.293 204.515L184.534 211.138L187.955 205.197C187.368 204.905 186.88 204.613 186.293 204.515Z" fill="white"/>
<path opacity="0.5" d="M183.556 212.598L187.955 204.905L188.053 205.002C188.639 205.392 189.226 205.781 189.714 206.268L189.812 206.365L183.556 212.598ZM188.15 205.294L184.729 211.235L189.519 206.463C189.128 205.976 188.639 205.586 188.15 205.294Z" fill="white"/>
<path opacity="0.5" d="M189.714 217.565L184.143 212.014L184.338 211.819C184.827 212.306 185.316 212.696 185.902 212.988C186.489 213.28 187.075 213.572 187.759 213.767L191.18 215.715L191.083 215.812C190.692 216.494 190.301 217.078 189.714 217.565ZM185.609 213.183L189.714 217.273C190.105 216.884 190.496 216.397 190.789 215.91L187.662 214.059C186.977 213.864 186.391 213.572 185.707 213.28C185.707 213.183 185.609 213.183 185.609 213.183Z" fill="white"/>
<path opacity="0.5" d="M190.985 216.007L186.782 213.572L187.662 213.767C188.346 213.962 188.932 214.059 189.617 214.059C190.301 214.059 190.985 213.962 191.571 213.767L191.767 213.67L191.669 213.864C191.474 214.546 191.18 215.13 190.887 215.812L190.985 216.007ZM188.346 214.157L190.887 215.617C191.18 215.13 191.376 214.644 191.571 214.059C190.985 214.157 190.301 214.254 189.714 214.254C189.226 214.351 188.835 214.254 188.346 214.157Z" fill="white"/>
<path opacity="0.5" d="M184.045 212.793V203.931H184.143C184.827 203.931 185.511 204.028 186.195 204.223H186.293L184.045 212.793ZM184.241 204.223V211.04L186 204.418C185.414 204.32 184.827 204.223 184.241 204.223Z" fill="white"/>
<path opacity="0.5" d="M184.241 212.793L181.993 204.223H182.09C182.775 204.028 183.459 203.931 184.143 203.931H184.241V212.793ZM182.286 204.418L184.045 211.04V204.223C183.459 204.223 182.872 204.32 182.286 204.418Z" fill="white"/>
<path opacity="0.5" d="M189.714 214.351H189.617V205.489L191.865 214.059H191.767C191.083 214.254 190.398 214.351 189.714 214.351ZM189.812 207.242V214.059C190.398 214.059 190.985 213.962 191.571 213.865L189.812 207.242Z" fill="white"/>
<path opacity="0.5" d="M191.669 214.059L189.421 205.489L193.819 213.183L193.722 213.28C193.135 213.67 192.451 213.864 191.767 214.059H191.669ZM190.008 207.242L191.767 213.864C192.353 213.67 192.94 213.475 193.429 213.183L190.008 207.242Z" fill="white"/>
<path opacity="0.5" d="M189.812 214.351H189.714C189.03 214.351 188.346 214.254 187.662 214.059H187.564L189.714 206.171L189.91 206.366V206.463V214.351H189.812ZM187.857 213.865C188.444 213.962 189.03 214.059 189.616 214.059V207.242L187.857 213.865Z" fill="white"/>
<path opacity="0.5" d="M187.759 214.059H187.662C186.977 213.864 186.391 213.572 185.707 213.28L185.609 213.183L190.008 205.489L187.759 214.059ZM185.902 213.085C186.391 213.378 186.977 213.572 187.564 213.767L189.323 207.145L185.902 213.085Z" fill="white"/>
<path opacity="0.5" d="M185.805 213.28L185.707 213.183C185.12 212.793 184.534 212.404 184.045 211.917L183.947 211.819L190.203 205.587L185.805 213.28ZM184.338 211.917C184.729 212.306 185.218 212.696 185.805 212.988L189.226 207.047L184.338 211.917Z" fill="white"/>
<path opacity="0.5" d="M197.338 208.508L189.617 206.463H189.519V206.171H189.617H197.534V206.268C197.534 206.95 197.436 207.632 197.24 208.313L197.338 208.508ZM190.594 206.463L197.24 208.216C197.338 207.632 197.436 207.047 197.436 206.463H190.594Z" fill="white"/>
<path opacity="0.5" d="M189.714 206.56L189.519 206.463L191.571 198.672H191.669C192.353 198.867 192.94 199.159 193.624 199.451L193.722 199.548L189.714 206.56ZM191.865 198.964L190.105 205.586L193.526 199.646C192.94 199.354 192.353 199.159 191.865 198.964Z" fill="white"/>
<path opacity="0.5" d="M189.617 206.755V198.38H189.714C190.398 198.38 191.083 198.477 191.767 198.672H191.865L189.812 206.366L189.617 206.755ZM189.812 198.672V205.489L191.571 198.867C190.985 198.769 190.398 198.672 189.812 198.672Z" fill="white"/>
<path opacity="0.5" d="M189.812 207.242L187.564 198.672H187.662C188.346 198.477 189.03 198.38 189.714 198.38H189.812V207.242ZM187.857 198.867L189.616 205.489V198.672C189.03 198.672 188.346 198.769 187.857 198.867Z" fill="white"/>
<path opacity="0.5" d="M189.323 206.852L193.624 199.451L193.722 199.548C194.308 199.938 194.895 200.327 195.383 200.814L195.481 200.912L189.812 206.56L189.323 206.852ZM193.722 199.743L190.301 205.684L195.09 200.912C194.699 200.425 194.21 200.035 193.722 199.743Z" fill="white"/>
<path opacity="0.5" d="M189.714 206.463H189.421L195.286 200.62L195.383 200.717C195.872 201.204 196.263 201.788 196.654 202.373L196.752 202.47L189.714 206.463ZM195.286 201.009L190.399 205.879L196.361 202.47C196.068 201.886 195.677 201.399 195.286 201.009Z" fill="white"/>
<path opacity="0.5" d="M196.556 210.456L189.617 206.463H189.519V206.171L189.714 206.268L197.436 208.313V208.411C197.24 209.093 196.947 209.677 196.654 210.359L196.556 210.456ZM190.496 206.755L196.458 210.164C196.752 209.677 196.947 209.093 197.143 208.508L190.496 206.755Z" fill="white"/>
<path opacity="0.5" d="M189.323 206.463L189.617 206.268L197.338 204.223V204.32C197.534 205.002 197.631 205.684 197.631 206.366V206.463H189.323ZM197.24 204.515L190.594 206.268H197.436C197.436 205.684 197.338 205.099 197.24 204.515Z" fill="white"/>
<path opacity="0.5" d="M188.835 206.755L196.556 202.373L196.654 202.47C197.045 203.054 197.24 203.736 197.436 204.418V204.515L188.835 206.755ZM196.458 202.567L190.496 205.976L197.143 204.223C196.947 203.639 196.752 203.152 196.458 202.567Z" fill="white"/>
<path opacity="0.5" d="M190.301 207.047L184.045 200.814L184.143 200.717C184.632 200.23 185.218 199.841 185.805 199.451L185.902 199.354L190.301 207.047ZM184.338 200.814L189.128 205.586L185.707 199.646C185.218 200.035 184.729 200.425 184.338 200.814Z" fill="white"/>
<path opacity="0.5" d="M190.008 207.242L185.609 199.548L185.707 199.451C186.293 199.061 186.977 198.867 187.662 198.672H187.759V198.769L190.008 207.242ZM185.902 199.646L189.323 205.586L187.564 198.964C186.977 199.159 186.489 199.354 185.902 199.646Z" fill="white"/>
<path opacity="0.5" d="M189.616 206.463C189.128 205.976 188.639 205.587 188.053 205.294C187.466 205.002 186.88 204.71 186.195 204.515L182.775 202.568L182.872 202.47C183.263 201.886 183.654 201.301 184.143 200.815L184.241 200.717L189.91 206.366L189.616 206.463ZM186.195 204.223C186.88 204.418 187.466 204.71 188.15 205.002C188.15 205.002 188.248 205.002 188.248 205.1L184.143 201.009C183.752 201.399 183.361 201.886 183.068 202.373L186.195 204.223Z" fill="white"/>
<path opacity="0.5" d="M186.977 204.71L186.098 204.515C185.414 204.32 184.729 204.223 184.143 204.223C183.459 204.223 182.775 204.32 182.188 204.515L181.993 204.613L182.09 204.418C182.286 203.736 182.579 203.152 182.872 202.47L182.97 202.373L186.977 204.71ZM182.97 202.567C182.677 203.054 182.481 203.541 182.286 204.126C182.872 204.028 183.556 203.931 184.143 203.931C184.632 203.931 185.023 203.931 185.414 204.028L182.97 202.567Z" fill="white"/>
<path opacity="0.5" d="M195.286 212.112L189.617 206.463L189.714 206.268L196.752 210.261L196.654 210.359C196.263 210.943 195.872 211.527 195.286 212.112ZM190.398 206.95L195.286 211.819C195.677 211.43 196.067 210.943 196.361 210.359L190.398 206.95Z" fill="white"/>
<path opacity="0.5" d="M193.624 213.28L189.226 205.587L195.481 211.819L195.383 211.917C194.895 212.404 194.308 212.793 193.722 213.183L193.624 213.28ZM190.301 207.047L193.722 212.988C194.21 212.696 194.699 212.306 195.09 211.917L190.301 207.047Z" fill="white"/>
</g>
<path d="M129.7 211.917H128.625V208.314L126.67 210.651C126.573 210.748 126.475 210.748 126.377 210.651L124.422 208.314V211.917H123.347V206.95C123.347 206.658 123.64 206.366 123.934 206.366C124.129 206.366 124.325 206.463 124.422 206.658L126.475 209.19L128.625 206.561C128.723 206.463 128.918 206.366 129.016 206.366C129.309 206.366 129.603 206.658 129.603 206.95V211.917H129.7Z" fill="white"/>
<path d="M157.557 211.917H158.828L159.512 210.456H161.955L162.737 211.917H164.008L161.271 206.658C161.173 206.463 160.978 206.366 160.782 206.366C160.587 206.366 160.392 206.463 160.294 206.658L157.557 211.917ZM160.685 207.924L161.467 209.482H159.903L160.685 207.924Z" fill="white"/>
<path d="M138.595 211.917H137.813L134.099 208.216V211.917H133.024V206.95C133.024 206.658 133.317 206.366 133.61 206.366C133.806 206.366 133.903 206.463 134.099 206.56L137.52 209.969V206.658C137.52 206.463 137.715 206.268 137.911 206.268H138.302C138.497 206.268 138.693 206.463 138.693 206.658V211.917H138.595Z" fill="white"/>
<path d="M143.189 206.463C142.798 206.366 142.407 206.366 141.82 206.366H140.257C139.963 206.366 139.67 206.658 139.67 206.95V211.917H141.527C142.114 211.917 142.602 211.819 143.091 211.722C144.557 211.332 145.339 210.359 145.339 209.092C145.339 207.729 144.557 206.853 143.189 206.463ZM142.896 210.748C142.505 210.845 142.114 210.845 141.625 210.845H140.941V207.437H141.82C142.309 207.437 142.7 207.437 142.993 207.534C143.873 207.729 144.264 208.216 144.264 209.092C144.166 209.872 143.775 210.456 142.896 210.748Z" fill="white"/>
<path d="M167.918 209.677C168.797 209.385 169.188 208.898 169.188 208.021C169.188 206.95 168.309 206.268 166.94 206.268H165.083C164.79 206.268 164.497 206.56 164.497 206.853V211.819H165.572V209.774H166.549L167.918 211.819H169.286L167.918 209.677ZM165.67 208.8V207.437H167.038C167.429 207.437 168.015 207.534 168.015 208.119C168.015 208.411 167.918 208.8 166.842 208.8H165.67Z" fill="white"/>
<path d="M130.776 211.917H131.851V206.755C131.851 206.56 131.655 206.366 131.46 206.366H131.069C130.873 206.366 130.678 206.56 130.678 206.755V211.917H130.776Z" fill="white"/>
<path d="M156.873 211.917H155.7V209.579H152.768V211.917H151.692V206.755C151.692 206.56 151.888 206.366 152.083 206.366H152.474C152.67 206.366 152.865 206.56 152.865 206.755V208.606H155.798V206.755C155.798 206.56 155.993 206.366 156.189 206.366H156.58C156.775 206.366 156.97 206.56 156.97 206.755V211.917H156.873Z" fill="white"/>
<path d="M148.565 208.606C147.783 208.508 147.294 208.411 147.294 207.924C147.294 207.534 147.685 207.34 148.369 207.34C149.151 207.34 149.738 207.632 150.031 207.729C150.129 207.729 150.129 207.729 150.129 207.632L150.422 206.95C150.422 206.95 150.422 206.95 150.422 206.853C150.422 206.755 150.422 206.755 150.324 206.755C149.738 206.463 148.956 206.268 148.271 206.268C146.903 206.268 146.121 206.853 146.121 207.924C146.121 208.411 146.317 208.8 146.61 209.093C147.001 209.385 147.685 209.482 148.271 209.579C149.053 209.677 149.542 209.774 149.542 210.164C149.542 210.846 148.662 210.846 148.271 210.846C147.685 210.846 147.099 210.651 146.61 210.359L146.512 210.261L146.414 210.359L146.023 211.04L145.926 211.332L146.023 211.43C146.414 211.722 147.099 212.014 148.174 212.014C149.64 212.014 150.617 211.332 150.617 210.261C150.715 208.898 149.542 208.703 148.565 208.606Z" fill="white"/>
<path d="M173.978 209.385C173.978 209.482 173.88 209.579 173.782 209.579H171.339V210.845H174.271V211.917H170.166V206.95C170.166 206.658 170.459 206.366 170.752 206.366H173.978C174.075 206.366 174.173 206.463 174.173 206.56V207.145C174.173 207.242 174.075 207.339 173.978 207.339H171.339V208.508H173.782C173.88 208.508 173.978 208.606 173.978 208.703V209.385Z" fill="white"/>
<path d="M184.143 220C179.647 220 175.933 216.397 175.933 211.819C175.933 207.339 179.549 203.639 184.143 203.639C186.293 203.639 188.346 204.515 189.91 205.976L189.421 206.463C188.053 205.099 186.098 204.32 184.143 204.32C180.038 204.32 176.715 207.632 176.715 211.722C176.715 215.812 180.038 219.123 184.143 219.123C187.564 219.123 190.594 216.786 191.376 213.475L192.06 213.67C191.18 217.468 187.955 220 184.143 220Z" fill="white"/>
<path d="M184.143 212.598C183.752 212.598 183.459 212.306 183.459 211.917C183.459 211.527 183.752 211.235 184.143 211.235C184.534 211.235 184.827 211.527 184.827 211.917C184.827 212.306 184.534 212.598 184.143 212.598ZM184.143 211.819C184.143 211.819 184.143 211.917 184.143 211.819C184.143 211.917 184.143 211.917 184.143 211.819C184.143 211.917 184.143 211.917 184.143 211.819C184.143 211.917 184.143 211.819 184.143 211.819Z" fill="white"/>
<path d="M189.714 214.449C187.564 214.449 185.511 213.67 184.045 212.111L184.534 211.625C185.902 212.988 187.759 213.767 189.714 213.767C190.398 213.767 191.083 213.67 191.669 213.475C194.895 212.598 197.143 209.677 197.143 206.268C197.143 202.178 193.819 198.867 189.714 198.867C186.293 198.867 183.263 201.204 182.481 204.515L181.797 204.32C182.677 200.62 186 198.088 189.714 198.088C194.21 198.088 197.925 201.691 197.925 206.268C197.925 209.969 195.481 213.183 191.865 214.157C191.18 214.351 190.398 214.449 189.714 214.449Z" fill="white"/>
<path d="M189.714 206.95C189.323 206.95 189.128 206.658 189.128 206.366C189.128 205.976 189.421 205.781 189.714 205.781C190.105 205.781 190.301 206.073 190.301 206.366C190.301 206.658 190.008 206.95 189.714 206.95ZM189.714 206.268C189.617 206.268 189.617 206.268 189.714 206.268C189.617 206.366 189.714 206.463 189.714 206.463C189.714 206.366 189.812 206.366 189.714 206.268C189.812 206.268 189.714 206.268 189.714 206.268Z" fill="white"/>
<path d="M189.491 206.101L183.912 211.698L184.398 212.179L189.976 206.581L189.491 206.101Z" fill="white"/>
</g>
<defs>
<clipPath id="clip0_4_3041">
<rect width="394" height="220" fill="white"/>
</clipPath>
</defs>
</svg>
